<svg viewBox="0 0 145 42" fill="black" xmlns="http://www.w3.org/2000/svg">
<path d="M10.032 20.144C8.768 20.144 7.6 19.936 6.528 19.52C5.456 19.088 4.528 18.488 3.744 17.72C2.96 16.952 2.344 16.048 1.896 15.008C1.464 13.968 1.248 12.832 1.248 11.6C1.248 10.368 1.464 9.232 1.896 8.192C2.344 7.152 2.96 6.248 3.744 5.48C4.544 4.712 5.48 4.12 6.552 3.704C7.624 3.272 8.792 3.056 10.056 3.056C11.272 3.056 12.416 3.264 13.488 3.68C14.56 4.08 15.464 4.688 16.2 5.504L15.072 6.632C14.384 5.928 13.624 5.424 12.792 5.12C11.96 4.8 11.064 4.64 10.104 4.64C9.096 4.64 8.16 4.816 7.296 5.168C6.432 5.504 5.68 5.992 5.04 6.632C4.4 7.256 3.896 7.992 3.528 8.84C3.176 9.672 3 10.592 3 11.6C3 12.608 3.176 13.536 3.528 14.384C3.896 15.216 4.4 15.952 5.04 16.592C5.68 17.216 6.432 17.704 7.296 18.056C8.16 18.392 9.096 18.56 10.104 18.56C11.064 18.56 11.96 18.4 12.792 18.08C13.624 17.76 14.384 17.248 15.072 16.544L16.2 17.672C15.464 18.488 14.56 19.104 13.488 19.52C12.416 19.936 11.264 20.144 10.032 20.144ZM23.874 20.144C21.73 20.144 20.042 19.528 18.81 18.296C17.578 17.064 16.962 15.24 16.962 12.824V3.2H18.738V12.752C18.738 14.736 19.186 16.2 20.082 17.144C20.978 18.088 22.242 18.56 23.874 18.56C25.522 18.56 26.794 18.088 27.69 17.144C28.586 16.2 29.034 14.736 29.034 12.752V3.2H30.762V12.824C30.762 15.24 30.146 17.064 28.914 18.296C27.698 19.528 26.018 20.144 23.874 20.144ZM36.1697 20V4.736H30.2657V3.2H43.8497V4.736H37.9457V20H36.1697ZM56.0949 3.2H57.8469V20H56.0949V3.2ZM45.5829 20H43.8069V3.2H45.5829V20ZM56.2629 12.248H45.3909V10.688H56.2629V12.248ZM62.0344 10.712H70.9144V12.224H62.0344V10.712ZM62.2264 18.464H72.3304V20H60.4504V3.2H71.9704V4.736H62.2264V18.464ZM73.6251 20V3.2H79.9131C81.3371 3.2 82.5611 3.432 83.5851 3.896C84.6091 4.344 85.3931 5 85.9371 5.864C86.4971 6.712 86.7771 7.744 86.7771 8.96C86.7771 10.144 86.4971 11.168 85.9371 12.032C85.3931 12.88 84.6091 13.536 83.5851 14C82.5611 14.448 81.3371 14.672 79.9131 14.672H74.6091L75.4011 13.856V20H73.6251ZM85.0971 20L80.7771 13.904H82.6971L87.0411 20H85.0971ZM75.4011 14L74.6091 13.16H79.8651C81.5451 13.16 82.8171 12.792 83.6811 12.056C84.5611 11.32 85.0011 10.288 85.0011 8.96C85.0011 7.616 84.5611 6.576 83.6811 5.84C82.8171 5.104 81.5451 4.736 79.8651 4.736H74.6091L75.4011 3.896V14ZM89.6728 10.712H98.5528V12.224H89.6728V10.712ZM89.8648 18.464H99.9688V20H88.0888V3.2H99.6088V4.736H89.8648V18.464Z"/>
<path d="M1.992 40V23.2H9.264C10.768 23.2 12.064 23.448 13.152 23.944C14.24 24.424 15.08 25.12 15.672 26.032C16.264 26.944 16.56 28.032 16.56 29.296C16.56 30.544 16.264 31.624 15.672 32.536C15.08 33.448 14.24 34.152 13.152 34.648C12.064 35.128 10.768 35.368 9.264 35.368H4.152L5.88 33.616V40H1.992ZM5.88 34.048L4.152 32.2H9.048C10.248 32.2 11.144 31.944 11.736 31.432C12.328 30.92 12.624 30.208 12.624 29.296C12.624 28.368 12.328 27.648 11.736 27.136C11.144 26.624 10.248 26.368 9.048 26.368H4.152L5.88 24.52V34.048ZM16.6957 40V23.2H23.9677C25.4718 23.2 26.7678 23.448 27.8558 23.944C28.9438 24.424 29.7838 25.12 30.3758 26.032C30.9678 26.944 31.2638 28.032 31.2638 29.296C31.2638 30.544 30.9678 31.624 30.3758 32.536C29.7838 33.432 28.9438 34.12 27.8558 34.6C26.7678 35.08 25.4718 35.32 23.9677 35.32H18.8557L20.5837 33.616V40H16.6957ZM27.3757 40L23.1758 33.904H27.3278L31.5757 40H27.3757ZM20.5837 34.048L18.8557 32.224H23.7517C24.9518 32.224 25.8478 31.968 26.4398 31.456C27.0318 30.928 27.3278 30.208 27.3278 29.296C27.3278 28.368 27.0318 27.648 26.4398 27.136C25.8478 26.624 24.9518 26.368 23.7517 26.368H18.8557L20.5837 24.52V34.048ZM39.8642 40.288C38.5362 40.288 37.3042 40.072 36.1682 39.64C35.0482 39.208 34.0722 38.6 33.2402 37.816C32.4242 37.032 31.7842 36.112 31.3202 35.056C30.8722 34 30.6482 32.848 30.6482 31.6C30.6482 30.352 30.8722 29.2 31.3202 28.144C31.7842 27.088 32.4322 26.168 33.2642 25.384C34.0962 24.6 35.0722 23.992 36.1922 23.56C37.3122 23.128 38.5282 22.912 39.8402 22.912C41.1682 22.912 42.3842 23.128 43.4882 23.56C44.6082 23.992 45.5762 24.6 46.3922 25.384C47.2242 26.168 47.8722 27.088 48.3362 28.144C48.8002 29.184 49.0322 30.336 49.0322 31.6C49.0322 32.848 48.8002 34.008 48.3362 35.08C47.8722 36.136 47.2242 37.056 46.3922 37.84C45.5762 38.608 44.6082 39.208 43.4882 39.64C42.3842 40.072 41.1762 40.288 39.8642 40.288ZM39.8402 36.976C40.5922 36.976 41.2802 36.848 41.9042 36.592C42.5442 36.336 43.1042 35.968 43.5842 35.488C44.0642 35.008 44.4322 34.44 44.6882 33.784C44.9602 33.128 45.0962 32.4 45.0962 31.6C45.0962 30.8 44.9602 30.072 44.6882 29.416C44.4322 28.76 44.0642 28.192 43.5842 27.712C43.1202 27.232 42.5682 26.864 41.9282 26.608C41.2882 26.352 40.5922 26.224 39.8402 26.224C39.0882 26.224 38.3922 26.352 37.7522 26.608C37.1282 26.864 36.5762 27.232 36.0962 27.712C35.6162 28.192 35.2402 28.76 34.9682 29.416C34.7122 30.072 34.5842 30.8 34.5842 31.6C34.5842 32.384 34.7122 33.112 34.9682 33.784C35.2402 34.44 35.6082 35.008 36.0722 35.488C36.5522 35.968 37.1122 36.336 37.7522 36.592C38.3922 36.848 39.0882 36.976 39.8402 36.976ZM52.0586 40.288C50.9226 40.288 49.8746 40.08 48.9146 39.664C47.9706 39.232 47.1946 38.624 46.5866 37.84L48.7466 35.248C49.2106 35.856 49.6986 36.32 50.2106 36.64C50.7226 36.944 51.2746 37.096 51.8666 37.096C53.4506 37.096 54.2426 36.168 54.2426 34.312V26.32H48.3386V23.2H58.1066V34.096C58.1066 36.176 57.5946 37.728 56.5706 38.752C55.5466 39.776 54.0426 40.288 52.0586 40.288ZM62.883 29.968H70.971V32.992H62.883V29.968ZM63.171 36.88H72.315V40H59.307V23.2H72.003V26.32H63.171V36.88ZM80.8086 40.288C79.5126 40.288 78.3046 40.08 77.1846 39.664C76.0806 39.232 75.1206 38.624 74.3046 37.84C73.4886 37.056 72.8486 36.136 72.3846 35.08C71.9366 34.024 71.7126 32.864 71.7126 31.6C71.7126 30.336 71.9366 29.176 72.3846 28.12C72.8486 27.064 73.4886 26.144 74.3046 25.36C75.1366 24.576 76.1046 23.976 77.2086 23.56C78.3126 23.128 79.5206 22.912 80.8326 22.912C82.2886 22.912 83.6006 23.168 84.7686 23.68C85.9526 24.176 86.9446 24.912 87.7446 25.888L85.2486 28.192C84.6726 27.536 84.0326 27.048 83.3286 26.728C82.6246 26.392 81.8566 26.224 81.0246 26.224C80.2406 26.224 79.5206 26.352 78.8646 26.608C78.2086 26.864 77.6406 27.232 77.1606 27.712C76.6806 28.192 76.3046 28.76 76.0326 29.416C75.7766 30.072 75.6486 30.8 75.6486 31.6C75.6486 32.4 75.7766 33.128 76.0326 33.784C76.3046 34.44 76.6806 35.008 77.1606 35.488C77.6406 35.968 78.2086 36.336 78.8646 36.592C79.5206 36.848 80.2406 36.976 81.0246 36.976C81.8566 36.976 82.6246 36.816 83.3286 36.496C84.0326 36.16 84.6726 35.656 85.2486 34.984L87.7446 37.288C86.9446 38.264 85.9526 39.008 84.7686 39.52C83.6006 40.032 82.2806 40.288 80.8086 40.288ZM91.0461 40V26.368H85.6701V23.2H100.31V26.368H94.9341V40H91.0461Z" />
<circle cx="124" cy="21" r="20"/>
<path d="M116.475 30.25C114.942 30.25 113.667 29.9667 112.65 29.4C111.65 28.8333 110.892 28.0417 110.375 27.025C109.858 26.0083 109.575 24.825 109.525 23.475C109.508 22.7917 109.5 22.0583 109.5 21.275C109.5 20.4917 109.508 19.7417 109.525 19.025C109.575 17.675 109.858 16.4917 110.375 15.475C110.892 14.4583 111.65 13.6667 112.65 13.1C113.667 12.5333 114.942 12.25 116.475 12.25C117.625 12.25 118.633 12.4083 119.5 12.725C120.367 13.0417 121.083 13.4667 121.65 14C122.233 14.5333 122.675 15.1333 122.975 15.8C123.275 16.45 123.442 17.125 123.475 17.825C123.492 17.975 123.442 18.1 123.325 18.2C123.225 18.3 123.1 18.35 122.95 18.35H121.575C121.425 18.35 121.292 18.3083 121.175 18.225C121.075 18.1417 121 17.9917 120.95 17.775C120.667 16.475 120.133 15.5833 119.35 15.1C118.583 14.6167 117.617 14.375 116.45 14.375C115.117 14.375 114.058 14.7583 113.275 15.525C112.492 16.275 112.067 17.4833 112 19.15C111.95 20.5167 111.95 21.9167 112 23.35C112.067 25.0167 112.492 26.2333 113.275 27C114.058 27.75 115.117 28.125 116.45 28.125C117.617 28.125 118.583 27.8833 119.35 27.4C120.133 26.9167 120.667 26.025 120.95 24.725C121 24.5083 121.075 24.3583 121.175 24.275C121.292 24.1917 121.425 24.15 121.575 24.15H122.95C123.1 24.15 123.225 24.2 123.325 24.3C123.442 24.4 123.492 24.525 123.475 24.675C123.442 25.375 123.275 26.0583 122.975 26.725C122.675 27.375 122.233 27.9667 121.65 28.5C121.083 29.0333 120.367 29.4583 119.5 29.775C118.633 30.0917 117.625 30.25 116.475 30.25ZM126.15 30C125.967 30 125.825 29.95 125.725 29.85C125.625 29.7333 125.575 29.5917 125.575 29.425V13.1C125.575 12.9167 125.625 12.775 125.725 12.675C125.825 12.5583 125.967 12.5 126.15 12.5H132.5C133.734 12.5 134.8 12.7 135.7 13.1C136.617 13.5 137.325 14.1 137.825 14.9C138.325 15.6833 138.575 16.6667 138.575 17.85C138.575 19.0333 138.325 20.0167 137.825 20.8C137.325 21.5833 136.617 22.175 135.7 22.575C134.8 22.975 133.734 23.175 132.5 23.175H128.075V29.425C128.075 29.5917 128.017 29.7333 127.9 29.85C127.8 29.95 127.659 30 127.475 30H126.15ZM128.05 21.075H132.375C133.609 21.075 134.534 20.8 135.15 20.25C135.767 19.7 136.075 18.9 136.075 17.85C136.075 16.8167 135.775 16.0167 135.175 15.45C134.575 14.8833 133.642 14.6 132.375 14.6H128.05V21.075Z" fill="white"/>
</svg>
